<?xml version="1.0"?>
<svg xmlns="http://www.w3.org/2000/svg" height="512px" viewBox="0 0 512 512.00404" width="512px" class=""><g><path d="m204.253906 408.539062c41.25.097657 81.550782-12.386718 115.523438-35.789062l115.335937 124.933594c8.160157 8.929687 19.632813 14.109375 31.726563 14.320312h.945312c18.230469-.035156 34.570313-11.238281 41.171875-28.230468 6.601563-16.988282 2.117188-36.285157-11.304687-48.621094l-107.835938-99.675782-17.066406-15.695312c61.039062-89.027344 42.273438-210.175781-42.835938-276.566406-85.109374-66.394532-207.183593-55.109375-278.679687 25.761718-71.496094 80.867188-67.730469 203.402344 8.589844 279.734376 38.222656 38.429687 90.226562 59.972656 144.429687 59.828124zm290.660156 58.671876c.179688 7.40625-2.691406 14.558593-7.945312 19.78125-5.15625 5.351562-12.355469 8.242187-19.777344 7.945312-7.449218-.132812-14.511718-3.324219-19.535156-8.824219l-90.863281-98.320312c13.675781-6.277344 24.648437-17.242188 30.941406-30.90625l98.367187 90.808593c5.492188 5.019532 8.679688 12.078126 8.8125 19.515626zm-120.515624-122.648438c-4.714844 14.113281-15.804688 25.179688-29.925782 29.867188l-10.984375-11.945313c5.257813-4.3125 10.324219-8.90625 15.199219-13.773437 4.875-4.871094 9.460938-9.929688 13.753906-15.179688zm-302.523438-272.664062c53.539062-53.542969 134.058594-69.558594 204.011719-40.582032 69.953125 28.976563 115.566406 97.238282 115.566406 172.953125 0 75.71875-45.613281 143.980469-115.566406 172.957031-69.953125 28.972657-150.472657 12.957032-204.011719-40.582031-35.25-35.03125-55.074219-82.675781-55.074219-132.375 0-49.695312 19.824219-97.339843 55.074219-132.371093zm0 0" data-original="#000000" class="active-path" data-old_color="#6c718b" fill="#6c718b"/><path d="m79.800781 315.292969c2.109375 2.363281 4.105469 4.789062 6.375 7.058593 65.253907 65.113282 170.902344 65.113282 236.152344 0 2.671875-2.671874 5.121094-5.511718 7.550781-8.328124.308594-.292969.59375-.605469.855469-.941407 58.195313-67.523437 53.058594-168.859375-11.664063-230.15625-64.726562-61.292969-166.191406-60.914062-230.453124.867188-64.261719 61.78125-68.632813 163.152343-9.933594 230.238281.332031.457031.703125.878906 1.117187 1.261719zm14.046875-9.871094v-15.285156c.027344-28.265625 22.933594-51.171875 51.199219-51.199219h14.046875l26.207031 20.941406-4.652343 4.660156c-6.660157 6.664063-6.660157 17.464844 0 24.128907l5.640624 5.640625-6.441406 57.6875c-30.921875-4.953125-59.480468-19.550782-81.605468-41.710938-1.5625-1.5625-2.917969-3.25-4.394532-4.863281zm98.867188-28.820313 12.066406-12.0625 12.074219 12.054688-12.074219 12.085938zm4.105468 77.160157 5.402344-48.265625c1.691406.328125 3.425782.328125 5.117188 0l5.386718 48.222656c-2.832031.152344-5.640624.410156-8.535156.410156-2.441406.007813-4.898437-.246094-7.371094-.367187zm32.878907-1.917969-6.425781-57.535156 5.640624-5.640625c6.660157-6.664063 6.660157-17.464844 0-24.128907l-4.652343-4.660156 26.171875-20.941406h14.082031c28.265625.027344 51.171875 22.933594 51.199219 51.199219v14.132812c-1.808594 2.011719-3.523438 4.085938-5.453125 5.972657-21.859375 21.925781-50.027344 36.472656-80.5625 41.601562zm-131.414063-253.578125c53.636719-53.570313 138.835938-58.644531 198.453125-11.816406 59.617188 46.832031 74.867188 130.808593 35.523438 195.605469-4.125-34.300782-33.199219-60.128907-67.746094-60.183594h-14.082031c-3.863282-.011719-7.613282 1.3125-10.613282 3.746094l-28.84375 23.039062c-3.984374-1.542969-8.40625-1.542969-12.390624 0l-28.738282-22.953125c-3.023437-2.480469-6.8125-3.835937-10.71875-3.832031h-14.082031c-35.109375.046875-64.476563 26.6875-67.933594 61.628906-36.804687-59.164062-28.050781-135.878906 21.128907-185.234375zm0 0" data-original="#000000" class="active-path" data-old_color="#6c718b" fill="#6c718b"/><path d="m204.78125 213.335938c37.703125 0 68.265625-30.5625 68.265625-68.265626 0-37.703124-30.5625-68.265624-68.265625-68.265624s-68.265625 30.5625-68.265625 68.265624c.042969 37.683594 30.582031 68.226563 68.265625 68.265626zm0-119.464844c28.277344 0 51.199219 22.921875 51.199219 51.199218 0 28.277344-22.921875 51.199219-51.199219 51.199219s-51.199219-22.921875-51.199219-51.199219c.027344-28.265624 22.933594-51.171874 51.199219-51.199218zm0 0" data-original="#000000" class="active-path" data-old_color="#6c718b" fill="#6c718b"/></g> </svg>
